<svg xmlns="http://www.w3.org/2000/svg" viewBox="0 0 333 333"><g fill="#fff"><circle cx="166.61" cy="171.44" r="24.524"/><path d="m233.12 88h-12.195c-6.669 0-11.926 4.21-11.926 10.876v6.04c0 6.666 5.257 12.09 11.925 12.09h12.195c6.669 0 10.879-5.422 10.879-12.09v-6.04c.0001-6.666-4.209-10.876-10.878-10.876"/><path d="m166.5 0c-91.96 0-166.5 74.54-166.5 166.5 0 91.95 74.54 166.5 166.5 166.5 91.95 0 166.5-74.55 166.5-166.5 0-91.96-74.55-166.5-166.5-166.5m-72.5 70.999c4-1.324 7.966-1.999 12.178-1.999h.822v60h-13v-58m169 154.82c0 20.01-16.17 36.18-36.18 36.18h-120.64c-20.01 0-36.18-16.18-36.18-36.18v-120.64c0-10.664 5-20.253 12-26.877v147.48c0 13.338 10.902 24.22 24.24 24.22h120.75c13.338 0 24.01-10.882 24.01-24.22v-96.78h-50.98c-8.782-8-20.516-13.05-33.406-13.05s-24.625 5.05-33.407 13.05h-15.207v-60h108.82c20.01 0 36.18 16.17 36.18 36.18v120.64m-133.16-54.38c0-20.31 16.464-36.774 36.773-36.774 20.31 0 36.773 16.464 36.773 36.774 0 20.309-16.464 36.773-36.773 36.773-20.308 0-36.773-16.464-36.773-36.773"/><g fill-rule="evenodd"><circle cx="166.61" cy="171.44" r="24.524"/><path d="m233.12 88h-12.195c-6.669 0-11.926 4.21-11.926 10.876v6.04c0 6.666 5.257 12.09 11.925 12.09h12.195c6.669 0 10.879-5.422 10.879-12.09v-6.04c.0001-6.666-4.209-10.876-10.878-10.876"/><path d="m166.5 0c-91.96 0-166.5 74.54-166.5 166.5 0 91.95 74.54 166.5 166.5 166.5 91.95 0 166.5-74.55 166.5-166.5 0-91.96-74.55-166.5-166.5-166.5m-72.5 70.999c4-1.324 7.966-1.999 12.178-1.999h.822v60h-13v-58m169 154.82c0 20.01-16.17 36.18-36.18 36.18h-120.64c-20.01 0-36.18-16.18-36.18-36.18v-120.64c0-10.664 5-20.253 12-26.877v147.48c0 13.338 10.902 24.22 24.24 24.22h120.75c13.338 0 24.01-10.882 24.01-24.22v-96.78h-50.98c-8.782-8-20.516-13.05-33.406-13.05s-24.625 5.05-33.407 13.05h-15.207v-60h108.82c20.01 0 36.18 16.17 36.18 36.18v120.64m-133.16-54.38c0-20.31 16.464-36.774 36.773-36.774 20.31 0 36.773 16.464 36.773 36.774 0 20.309-16.464 36.773-36.773 36.773-20.308 0-36.773-16.464-36.773-36.773"/></g></g></svg>