<svg xmlns="http://www.w3.org/2000/svg" viewBox="0 0 333 333"><g fill="#fff"><path d="m166.5 0c-91.96 0-166.5 74.54-166.5 166.5 0 91.95 74.54 166.5 166.5 166.5 91.95 0 166.5-74.55 166.5-166.5 0-91.96-74.55-166.5-166.5-166.5m-48.52 238.81h-38.06v-114.57h38.06v114.57m-19-130.22h-.284c-12.763 0-21.03-8.795-21.03-19.81 0-11.238 8.52-19.788 21.565-19.788 13.02 0 21.02 8.55 21.266 19.788 0 11.02-8.245 19.81-21.515 19.81m156.35 130.22h-38.08v-61.32c0-15.391-5.5-25.896-19.277-25.896-10.535 0-16.79 7.09-19.56 13.927-1.01 2.463-1.257 5.883-1.257 9.303v63.99h-38.11c0 0 .525-103.82 0-114.58h38.11v16.243c5.059-7.798 14.1-18.96 34.31-18.96 25.09 0 43.864 16.393 43.864 51.593v65.7"/><path fill-rule="evenodd" d="m166.5 0c-91.96 0-166.5 74.54-166.5 166.5 0 91.95 74.54 166.5 166.5 166.5 91.95 0 166.5-74.55 166.5-166.5 0-91.96-74.55-166.5-166.5-166.5m-48.52 238.81h-38.06v-114.57h38.06v114.57m-19-130.22h-.284c-12.763 0-21.03-8.795-21.03-19.81 0-11.238 8.52-19.788 21.565-19.788 13.02 0 21.02 8.55 21.266 19.788 0 11.02-8.245 19.81-21.515 19.81m156.35 130.22h-38.08v-61.32c0-15.391-5.5-25.896-19.277-25.896-10.535 0-16.79 7.09-19.56 13.927-1.01 2.463-1.257 5.883-1.257 9.303v63.99h-38.11c0 0 .525-103.82 0-114.58h38.11v16.243c5.059-7.798 14.1-18.96 34.31-18.96 25.09 0 43.864 16.393 43.864 51.593v65.7"/></g></svg>